<?xml version="1.0" standalone="no"?>
<!DOCTYPE svg PUBLIC "-//W3C//DTD SVG 20010904//EN"
 "http://www.w3.org/TR/2001/REC-SVG-20010904/DTD/svg10.dtd">
<svg version="1.0" xmlns="http://www.w3.org/2000/svg"
 width="168.000000pt" height="168.000000pt" viewBox="0 0 168.000000 168.000000"
 preserveAspectRatio="xMidYMid meet">
<metadata>
Created by potrace 1.14, written by Peter Selinger 2001-2017
</metadata>
<g transform="translate(0.000000,168.000000) scale(0.100000,-0.100000)"
fill="#000000" stroke="none">
<path d="M0 840 c0 -765 1 -840 16 -840 10 0 14 6 10 15 -3 8 -1 15 4 15 6 0
10 -7 10 -16 0 -12 10 -14 48 -12 34 2 47 7 47 18 0 17 25 64 31 58 2 -3 -1
-19 -6 -37 -8 -28 -7 -32 6 -27 9 3 20 6 26 6 6 0 8 6 5 14 -3 7 0 19 6 25 8
8 5 16 -8 31 -20 22 -31 90 -15 90 6 0 10 -10 10 -22 0 -19 4 -17 26 15 15 23
31 36 39 33 9 -3 12 0 9 9 -12 29 70 155 166 255 l52 55 -41 -55 c-23 -30 -48
-64 -56 -75 -25 -32 -17 -37 13 -6 28 29 80 61 68 43 -3 -6 -2 -13 3 -16 11
-7 35 20 27 32 -3 5 1 9 9 9 13 0 13 -3 0 -23 -19 -29 -19 -34 -1 -34 8 0 24
12 35 28 l20 27 -11 -31 c-14 -40 -4 -72 17 -54 8 7 15 19 15 26 0 8 4 14 9
14 5 0 3 -17 -6 -38 -15 -40 -36 -49 -62 -28 -8 6 -12 7 -10 1 3 -5 -2 -18
-13 -27 -10 -10 -18 -14 -18 -9 0 20 -50 -16 -59 -41 -13 -36 -23 -36 -15 -2
6 25 5 26 -19 20 -22 -5 -24 -3 -20 14 7 27 -8 25 -41 -5 -27 -25 -32 -41 -17
-64 12 -19 53 -25 62 -9 9 14 11 9 25 -47 l7 -30 7 25 c5 14 9 18 9 10 2 -26
21 11 21 41 0 15 7 29 15 32 11 5 13 0 9 -23 -5 -21 -3 -28 7 -26 27 4 58 26
64 45 4 12 12 17 28 14 17 -3 26 2 37 21 8 16 16 22 20 15 10 -14 21 -14 31 3
7 11 9 11 9 -1 0 -7 6 -11 15 -7 8 3 15 1 15 -4 0 -18 42 -5 50 16 14 36 31
39 24 4 -6 -25 -4 -29 10 -24 19 7 19 4 5 43 -6 17 -15 31 -20 31 -5 0 -9 9
-9 20 0 11 5 20 10 20 6 0 10 -4 10 -9 0 -16 41 -3 61 18 11 12 16 27 12 36
-3 10 0 21 7 25 21 13 0 32 -31 28 -26 -4 -29 -2 -24 16 6 21 6 21 -9 2 -9
-11 -16 -16 -16 -10 0 5 -5 2 -10 -6 -9 -13 -10 -13 -10 0 0 13 -1 13 -10 0
-11 -17 -13 -1 -4 25 6 13 9 14 16 3 7 -9 8 -1 4 22 -4 25 -3 31 4 20 8 -12
10 -11 10 7 0 19 -3 21 -22 14 -17 -6 -25 -22 -36 -72 -12 -50 -16 -60 -23
-44 -10 26 -11 37 -1 32 4 -3 8 5 8 16 1 12 6 38 12 57 l11 35 -29 -33 c-17
-18 -30 -29 -30 -24 0 4 5 13 12 20 6 6 8 15 4 19 -4 5 -15 -2 -24 -13 -55
-70 -60 -75 -33 -33 16 25 36 51 45 58 21 17 21 41 0 41 -9 0 -30 -10 -47 -22
-30 -20 -29 -18 7 20 l39 41 -29 -5 -29 -5 30 21 c17 11 26 20 20 20 -15 0 18
20 34 20 10 0 9 -6 -4 -26 l-17 -27 23 17 c30 20 49 21 49 0 0 -8 -4 -12 -10
-9 -5 3 -7 0 -4 -8 6 -18 46 -16 61 3 11 13 12 13 13 -2 0 -10 0 -21 0 -24 0
-4 -16 -8 -37 -10 -23 -2 -46 -13 -62 -29 l-26 -26 30 15 c38 20 46 20 39 1
-8 -19 10 -19 26 0 18 22 28 18 28 -10 0 -15 -5 -22 -11 -18 -6 4 -8 0 -4 -10
3 -10 2 -17 -3 -17 -6 0 -10 -7 -10 -15 0 -24 30 -5 36 24 12 52 15 61 26 61
6 0 8 -13 6 -30 -4 -24 -1 -30 13 -30 10 0 21 -5 24 -10 4 -6 16 -10 28 -8 15
2 25 -5 35 -24 13 -27 32 -38 32 -19 0 5 8 7 18 5 30 -7 46 10 32 36 -7 12
-12 49 -12 82 0 47 4 64 21 82 12 13 21 27 19 32 -1 5 13 24 31 42 26 25 36
30 42 20 7 -10 11 -10 25 3 15 16 15 17 -5 24 -12 3 -26 15 -32 26 -10 19 -8
20 23 14 41 -8 65 14 70 64 3 39 23 52 31 21 3 -11 10 -20 16 -20 19 0 12 28
-12 45 -14 10 -18 18 -11 23 15 10 23 37 16 48 -12 18 -71 36 -94 31 -29 -8
-91 -107 -82 -130 3 -10 1 -17 -4 -17 -13 0 -21 25 -22 65 0 48 3 64 12 59 4
-3 8 0 8 6 0 6 7 18 15 26 8 9 15 30 15 47 0 25 3 29 10 17 7 -11 9 -1 5 33
-2 29 0 45 5 42 9 -6 5 70 -6 103 -2 7 0 10 5 7 20 -12 23 22 16 176 l-7 159
-129 0 -129 0 0 -104 c0 -101 -1 -104 -21 -99 -12 3 -24 1 -28 -6 -6 -9 -10
34 -14 182 l-1 27 -123 0 -123 0 -1 -62 c-2 -81 -13 -130 -23 -105 -5 9 -5 24
-2 32 3 10 -1 18 -12 22 -25 10 -32 23 -32 71 l0 42 -121 0 -120 0 2 -51 c3
-46 0 -53 -25 -71 -39 -29 -43 -23 -45 67 l-1 55 -85 0 -85 0 0 -840z m460
710 c0 -5 -7 -10 -16 -10 -8 0 -12 5 -9 10 3 6 10 10 16 10 5 0 9 -4 9 -10z
m147 4 c-3 -3 -12 -4 -19 -1 -8 3 -5 6 6 6 11 1 17 -2 13 -5z m-1 -34 c0 -12
-4 -16 -9 -11 -5 5 -6 14 -3 20 10 15 12 14 12 -9z m65 6 c5 3 9 -1 9 -9 0
-15 -24 -30 -33 -21 -3 3 -2 15 1 27 3 12 7 16 10 9 2 -7 8 -10 13 -6z m-158
-42 c10 -19 12 -32 6 -29 -6 4 -14 17 -19 29 -7 17 -9 14 -10 -19 0 -31 -3
-36 -10 -23 -10 17 -3 78 9 78 4 0 15 -16 24 -36z m184 4 c-3 -8 -6 -5 -6 6
-1 11 2 17 5 13 3 -3 4 -12 1 -19z m-413 -14 c3 -8 2 -12 -4 -9 -6 3 -10 10
-10 16 0 14 7 11 14 -7z m449 -91 c10 -18 20 -33 23 -33 2 0 0 9 -6 20 -15 28
-4 25 29 -9 26 -27 47 -74 42 -95 -1 -5 4 -16 12 -25 7 -9 22 -33 32 -53 10
-20 23 -35 27 -32 4 3 8 -9 8 -25 0 -17 4 -31 9 -31 18 0 17 -64 -2 -92 -29
-43 -48 -37 -42 13 3 23 1 47 -4 53 -5 6 -12 31 -16 56 -7 40 -43 94 -64 95
-3 1 -15 6 -26 12 -11 6 -44 14 -73 18 -57 8 -63 19 -10 17 23 -1 28 2 18 8
-8 6 -28 10 -45 10 -19 0 -25 3 -17 8 7 5 28 8 47 7 38 -1 43 6 20 25 -18 15
-9 34 12 25 12 -4 13 -2 6 7 -5 7 -10 36 -10 63 -1 39 0 43 5 20 4 -16 15 -45
25 -62z m4 65 c-3 -8 -6 -5 -6 6 -1 11 2 17 5 13 3 -3 4 -12 1 -19z m133 -9
c0 -6 -4 -7 -10 -4 -5 3 -10 11 -10 16 0 6 5 7 10 4 6 -3 10 -11 10 -16z
m-423 -31 c-3 -8 -6 -5 -6 6 -1 11 2 17 5 13 3 -3 4 -12 1 -19z m417 -20 c-3
-5 -12 -1 -20 9 -20 26 -17 35 5 16 11 -9 18 -21 15 -25z m83 -18 c-3 -22 -2
-38 2 -36 13 8 28 -41 19 -64 -8 -21 -10 -22 -27 -6 -10 9 -18 22 -19 29 0 6
-3 30 -6 52 -4 26 -3 33 2 21 6 -14 11 -16 16 -8 4 7 4 17 1 22 -3 6 -3 15 0
20 13 21 17 9 12 -30z m-561 0 c8 0 14 5 14 11 0 8 4 9 13 0 8 -6 18 -7 22 -3
5 4 5 1 1 -6 -4 -7 -11 -10 -16 -7 -4 3 -6 -4 -3 -15 3 -11 13 -20 22 -20 14
-1 14 -2 -1 -11 -11 -6 -15 -16 -11 -26 4 -11 3 -14 -6 -9 -7 5 -10 14 -7 22
3 7 -4 18 -15 24 -11 6 -17 15 -14 21 6 9 -7 13 -37 10 -10 -1 -18 3 -18 8 0
6 7 11 15 11 8 0 16 6 16 13 1 6 3 4 6 -5 2 -10 11 -18 19 -18z m-76 0 c-6
-11 -13 -20 -16 -20 -2 0 0 9 6 20 6 11 13 20 16 20 2 0 0 -9 -6 -20z m590 -2
c0 -18 -2 -20 -9 -8 -6 8 -7 18 -5 22 9 14 14 9 14 -14z m168 10 c18 -18 14
-35 -9 -41 -18 -5 -20 -2 -15 20 4 15 3 22 -3 19 -5 -4 -12 -2 -16 4 -9 14 28
13 43 -2z m-88 -13 c0 -8 -4 -15 -10 -15 -5 0 -7 7 -4 15 4 8 8 15 10 15 2 0
4 -7 4 -15z m-526 -10 c-4 -8 -11 -15 -16 -15 -6 0 -5 6 2 15 7 8 14 15 16 15
2 0 1 -7 -2 -15z m76 -219 c16 -17 46 -50 67 -74 33 -39 133 -103 133 -85 0 4
5 2 12 -5 7 -7 20 -12 30 -12 10 0 18 -5 18 -11 0 -5 5 -7 10 -4 6 3 10 1 10
-4 0 -6 -8 -12 -17 -12 -68 -5 -80 -3 -76 8 4 9 -3 11 -23 8 -31 -6 -69 12
-46 22 6 2 9 9 6 15 -4 6 -11 2 -18 -10 l-11 -22 -13 21 c-11 17 -11 20 0 14
7 -3 4 0 -6 9 -10 8 -24 12 -30 9 -6 -4 -4 2 4 13 8 10 11 16 6 12 -5 -4 -20
5 -35 21 -21 22 -31 26 -49 20 -12 -5 -21 -5 -21 -1 3 21 -5 35 -41 73 -22 23
-40 43 -40 44 0 1 22 -2 50 -8 35 -7 59 -19 80 -41z m106 29 c-11 -8 -16 -15
-12 -15 5 0 4 -6 -2 -12 -5 -7 -8 -28 -7 -47 2 -22 0 -29 -6 -20 -22 35 2 110
35 109 6 0 2 -7 -8 -15z m-241 -15 c3 -6 -1 -7 -9 -4 -18 7 -21 14 -7 14 6 0
13 -4 16 -10z m355 -26 c0 -8 -4 -12 -10 -9 -5 3 -10 10 -10 16 0 5 5 9 10 9
6 0 10 -7 10 -16z m-217 -82 c10 -10 14 -22 10 -25 -3 -4 0 -7 7 -7 7 0 10 -3
7 -7 -8 -7 -57 35 -57 49 0 14 16 9 33 -10z m637 -42 c0 -5 -4 -10 -10 -10 -5
0 -10 5 -10 10 0 6 5 10 10 10 6 0 10 -4 10 -10z m0 -74 c0 -2 -8 -10 -17 -17
-16 -13 -17 -12 -4 4 13 16 21 21 21 13z m-870 -37 c0 -5 -6 -9 -13 -9 -8 0
-14 6 -14 14 0 8 6 12 14 9 7 -3 13 -9 13 -14z m644 -85 c39 -42 46 -55 46
-91 0 -36 -5 -45 -32 -64 -18 -13 -36 -27 -39 -32 -4 -5 -12 -6 -18 -3 -6 4
-11 3 -11 -1 0 -5 -9 -9 -21 -10 -15 -1 -19 3 -17 20 2 14 -2 22 -12 22 -9 0
-16 11 -18 25 -2 20 -1 22 7 10 8 -12 11 -12 11 -1 0 7 6 11 15 7 8 -3 15 -1
15 4 0 6 5 9 11 8 6 -2 14 3 17 11 3 10 0 12 -12 8 -9 -4 -16 -2 -16 4 0 6 -4
8 -9 4 -16 -9 -20 9 -5 23 8 7 14 10 14 6 0 -4 9 1 20 11 11 10 20 22 20 27 0
5 -9 6 -20 3 -12 -4 -20 -2 -20 5 0 6 -4 8 -10 5 -5 -3 -10 -1 -10 5 0 7 8 9
20 5 27 -9 25 9 -2 28 l-23 15 27 -2 c17 -2 43 -20 72 -52z m-104 0 c0 -2 -9
0 -20 6 -11 6 -20 13 -20 16 0 2 9 0 20 -6 11 -6 20 -13 20 -16z m-648 -24
c16 -9 25 -20 21 -23 -3 -4 1 -7 10 -7 19 0 23 -16 5 -22 -6 -2 5 -4 25 -4 25
0 43 -8 62 -27 30 -29 30 -29 -61 -4 -35 9 -62 25 -83 48 -17 18 -27 35 -21
37 6 2 3 10 -7 18 -17 13 -17 14 2 7 11 -4 32 -14 47 -23z m516 18 c-16 -5
-28 -16 -28 -23 0 -15 -23 -26 -36 -17 -11 9 -15 44 -4 37 5 -3 11 -2 13 2 3
5 23 9 44 9 36 2 37 1 11 -8z m24 -49 c-20 -8 -37 5 -28 20 5 7 13 7 26 -2 18
-11 19 -12 2 -18z m-95 -5 c-3 -3 -12 -4 -19 -1 -8 3 -5 6 6 6 11 1 17 -2 13
-5z m168 -4 c3 -5 1 -10 -4 -10 -6 0 -11 5 -11 10 0 6 2 10 4 10 3 0 8 -4 11
-10z m-25 -18 c0 -5 -7 -9 -15 -9 -8 0 -12 4 -9 9 3 4 9 8 15 8 5 0 9 -4 9 -8z
m-563 -48 c-3 -3 -12 -4 -19 -1 -8 3 -5 6 6 6 11 1 17 -2 13 -5z m47 -24 c-5
-4 -18 -4 -29 0 -19 8 -19 9 3 9 12 1 22 7 23 14 0 9 2 8 6 -1 3 -8 1 -17 -3
-22z m75 0 c-59 -31 -92 -60 -68 -60 11 0 11 -2 -1 -10 -12 -8 -12 -10 3 -16
9 -3 25 -3 34 0 15 6 15 4 -2 -14 -10 -11 -14 -20 -9 -20 5 0 2 -5 -6 -11 -12
-8 -10 -9 10 -7 22 3 25 0 22 -27 -2 -20 0 -26 6 -17 7 11 11 8 16 -10 l6 -23
15 25 c8 14 14 19 15 12 0 -7 -11 -29 -24 -50 -12 -20 -26 -48 -31 -61 -5 -18
-9 -21 -16 -10 -8 12 -11 12 -19 -1 -5 -8 -10 -10 -10 -5 0 6 5 16 12 23 9 9
6 12 -15 12 -15 0 -27 6 -27 13 0 8 -3 8 -9 -2 -7 -11 -12 -4 -20 24 -6 21 -8
41 -6 46 3 4 -3 10 -13 14 -15 6 -13 9 11 21 15 8 27 16 27 17 0 9 -74 6 -91
-3 -29 -16 -33 -7 -9 20 16 18 17 25 8 32 -7 4 -10 8 -5 9 4 1 12 3 17 4 6 1
18 3 28 4 15 1 15 3 2 11 -11 7 -6 10 21 10 19 0 39 4 45 10 14 14 117 70 129
69 6 0 -15 -13 -46 -29z m300 -150 c-12 -22 -25 -38 -27 -35 -5 4 37 75 44 75
3 0 -5 -18 -17 -40z m-59 -20 c-6 -11 -13 -20 -16 -20 -2 0 0 9 6 20 6 11 13
20 16 20 2 0 0 -9 -6 -20z m107 -62 c-3 -7 -5 -2 -5 12 0 14 2 19 5 13 2 -7 2
-19 0 -25z m50 0 c-3 -8 -6 -5 -6 6 -1 11 2 17 5 13 3 -3 4 -12 1 -19z m-30
-40 c-3 -8 -6 -5 -6 6 -1 11 2 17 5 13 3 -3 4 -12 1 -19z m20 -15 c-3 -10 -5
-4 -5 12 0 17 2 24 5 18 2 -7 2 -21 0 -30z"/>
<path d="M320 405 c-7 -9 -10 -18 -7 -21 3 -3 10 4 17 15 13 25 8 27 -10 6z"/>
<path d="M1186 1483 c5 -134 11 -203 19 -213 7 -8 10 -21 8 -27 -3 -7 1 -13 7
-13 6 0 10 -6 7 -12 -2 -7 1 -27 8 -45 8 -17 11 -34 7 -37 -3 -3 0 -6 6 -6 6
0 14 -15 18 -32 4 -18 10 -40 12 -48 9 -31 5 -201 -6 -223 -14 -28 -37 -108
-35 -124 0 -7 -2 -13 -6 -13 -4 0 -7 -12 -8 -27 -1 -16 -4 -41 -7 -58 -2 -16
0 -35 6 -42 8 -10 7 -12 -6 -7 -12 5 -15 2 -9 -12 3 -10 7 -58 8 -108 0 -50 2
-169 3 -263 l2 -173 129 0 129 0 -4 63 c-3 49 -24 1425 -24 1580 l0 37 -135 0
-135 0 6 -197z"/>
<path d="M1515 1378 c8 -469 15 -1047 15 -1220 l0 -158 75 0 75 0 0 840 0 840
-85 0 -85 0 5 -302z"/>
<path d="M1142 1250 c-7 -11 -8 -20 -3 -20 4 0 3 -18 -2 -40 -13 -45 -4 -62
18 -34 15 20 18 67 7 96 -7 17 -8 16 -20 -2z"/>
<path d="M1180 811 c0 -5 -3 -16 -6 -25 -4 -10 -1 -16 8 -16 7 0 15 11 16 25
1 14 -3 25 -8 25 -6 0 -10 -4 -10 -9z"/>
<path d="M1211 798 c-1 -16 4 -28 9 -28 12 0 12 8 0 35 -8 18 -9 17 -9 -7z"/>
<path d="M1140 705 c7 -9 15 -13 17 -11 7 7 -7 26 -19 26 -6 0 -6 -6 2 -15z"/>
<path d="M1040 555 c0 -18 19 -40 26 -32 4 4 0 15 -9 24 -9 10 -17 13 -17 8z"/>
<path d="M883 477 c-13 -5 -23 -16 -23 -24 0 -18 14 -16 41 5 26 22 14 34 -18
19z"/>
<path d="M1140 440 c0 -8 5 -22 10 -30 9 -13 10 -13 10 0 0 8 -5 22 -10 30 -9
13 -10 13 -10 0z"/>
<path d="M1095 414 c-22 -37 -109 -96 -130 -88 -8 3 -15 1 -15 -5 0 -6 -6 -11
-14 -11 -24 0 -27 -30 -20 -173 l7 -138 121 3 121 3 -3 165 c-3 167 -10 220
-35 254 -13 18 -15 18 -32 -10z"/>
<path d="M485 379 c-4 -6 -5 -12 -2 -15 2 -3 7 2 10 11 7 17 1 20 -8 4z"/>
<path d="M475 340 c-3 -5 -1 -10 4 -10 6 0 11 5 11 10 0 6 -2 10 -4 10 -3 0
-8 -4 -11 -10z"/>
<path d="M801 267 c-12 -15 -61 -160 -61 -182 0 -8 -9 -30 -21 -49 l-21 -36
84 0 85 0 -4 128 c-3 70 -6 133 -8 140 -6 16 -40 15 -54 -1z"/>
<path d="M226 142 c-3 -6 -1 -14 5 -17 15 -10 25 3 12 16 -7 7 -13 7 -17 1z"/>
<path d="M285 100 c-3 -5 1 -10 10 -10 9 0 13 5 10 10 -3 6 -8 10 -10 10 -2 0
-7 -4 -10 -10z"/>
<path d="M470 69 c0 -5 5 -7 10 -4 6 3 10 8 10 11 0 2 -4 4 -10 4 -5 0 -10 -5
-10 -11z"/>
</g>
</svg>
